<?xml version="1.0" standalone="no"?>
<!DOCTYPE svg PUBLIC "-//W3C//DTD SVG 20010904//EN"
 "http://www.w3.org/TR/2001/REC-SVG-20010904/DTD/svg10.dtd">
<svg version="1.0" xmlns="http://www.w3.org/2000/svg"
 width="500.000000pt" height="500.000000pt" viewBox="0 0 500.000000 500.000000"
 preserveAspectRatio="xMidYMid meet">

<g transform="translate(0.000000,500.000000) scale(0.100000,-0.100000)"
fill="#000000" stroke="none">
<path d="M2420 4861 c-7 -13 -10 -256 -10 -718 l0 -698 -549 549 c-611 610
-553 566 -625 486 -28 -32 -34 -44 -27 -58 5 -9 278 -285 605 -612 l596 -595
0 -260 0 -260 -753 753 c-528 528 -759 752 -774 752 -20 0 -103 -86 -103 -106
0 -5 367 -376 815 -824 l815 -815 -2 -260 -3 -260 -923 920 c-508 506 -929
921 -935 923 -7 1 -34 -20 -61 -47 -35 -35 -46 -54 -42 -68 3 -10 447 -459
986 -998 l980 -978 0 -630 0 -629 -72 7 c-267 24 -569 109 -798 225 -258 130
-534 354 -709 574 -258 326 -421 729 -461 1141 -6 61 -11 133 -13 160 l-2 50
-75 0 -75 0 1 -125 c3 -353 127 -762 333 -1103 157 -261 403 -511 688 -703
435 -292 1001 -430 1528 -370 143 16 439 85 560 131 81 30 270 122 369 179
177 102 402 291 560 472 153 174 328 468 410 687 85 227 147 551 150 782 l1
50 -80 0 -80 0 -7 -120 c-41 -719 -424 -1356 -1038 -1725 -288 -174 -588 -269
-957 -305 l-63 -6 -1 528 c0 482 0 671 1 714 0 8 159 172 353 365 1175 1164
1617 1610 1617 1630 0 25 -63 100 -92 110 -18 5 -160 -133 -949 -922 l-929
-929 -1 240 c-1 132 0 249 1 260 1 12 339 358 821 840 450 451 819 825 819
831 0 17 -92 104 -110 104 -8 0 -356 -341 -772 -757 l-758 -758 -1 240 c-1
132 0 249 1 260 1 12 255 274 612 632 l612 612 -48 55 c-26 31 -55 56 -64 56
-9 0 -263 -246 -564 -547 l-548 -548 0 698 c0 462 -3 705 -10 718 -9 16 -22
19 -75 19 -53 0 -66 -3 -75 -19z"/>
</g>
</svg>
