<svg xmlns="http://www.w3.org/2000/svg" viewBox="0 0 763.000000 99.000000"
 preserveAspectRatio="xMidYMid meet">

<g transform="translate(0.000000,99.000000) scale(0.100000,-0.100000)"
fill="currentColor" stroke="none">
<path d="M1704 919 c-76 -29 -137 -98 -164 -185 -34 -112 -44 -203 -31 -289
32 -217 130 -335 279 -335 75 0 116 17 172 71 56 54 82 112 88 192 l5 67 -62
0 c-41 0 -63 -4 -65 -12 -2 -7 -9 -33 -16 -56 -15 -58 -65 -111 -110 -118 -49
-8 -98 27 -130 91 -23 46 -25 61 -25 180 0 151 18 209 77 245 80 48 148 14
183 -91 l22 -64 61 -3 c72 -3 70 -7 48 100 -26 119 -67 176 -153 208 -67 25
-113 25 -179 -1z"/>
<path d="M2565 917 c-14 -5 -53 -49 -97 -110 -99 -138 -147 -197 -158 -197 -6
0 -10 61 -10 155 l0 155 -63 0 -64 0 -6 -127 c-4 -71 -7 -191 -7 -268 0 -77 3
-197 7 -267 l6 -128 64 0 63 0 0 113 c0 107 1 115 28 158 16 24 38 52 49 61
19 18 21 15 92 -140 40 -86 82 -167 94 -179 16 -18 31 -23 74 -23 36 0 55 5
59 13 3 8 -40 110 -96 227 -55 118 -100 227 -100 243 0 20 28 65 98 160 55 73
102 137 105 144 9 14 -101 22 -138 10z"/>
<path d="M107 913 c-4 -3 -7 -32 -7 -64 0 -70 -3 -69 176 -69 117 0 134 -2
157 -20 48 -38 42 -133 -10 -155 -10 -4 -88 -10 -173 -14 l-155 -6 -3 -165
c-2 -91 0 -193 3 -228 l7 -62 58 0 58 0 5 87 c2 49 5 119 6 157 3 79 5 86 30
86 22 0 47 -28 91 -100 122 -200 158 -240 218 -240 20 0 47 3 60 6 22 6 22 7
6 32 -9 14 -44 73 -79 131 -34 58 -72 123 -84 143 -23 38 -23 38 -2 45 37 14
110 93 121 131 24 89 5 201 -44 257 -24 28 -42 37 -85 45 -60 11 -344 14 -354
3z"/>
<path d="M1010 906 c-6 -8 -22 -53 -35 -100 -22 -81 -38 -133 -111 -366 -38
-124 -84 -287 -84 -300 0 -6 29 -10 64 -10 l65 0 25 83 c14 45 47 152 72 237
26 85 55 171 64 190 l18 35 11 -28 c6 -16 11 -32 11 -37 0 -4 18 -68 41 -141
22 -74 54 -180 71 -236 l31 -103 69 0 c43 0 68 4 68 11 0 6 -29 104 -65 218
-96 303 -142 452 -150 486 -14 62 -30 75 -94 75 -39 0 -63 -5 -71 -14z"/>
<path d="M3416 898 c-8 -13 -18 -36 -21 -53 -7 -29 -61 -211 -110 -370 -13
-44 -40 -134 -59 -201 -19 -66 -38 -128 -42 -137 -5 -15 2 -17 60 -17 75 0 79
4 109 115 9 33 34 123 56 200 22 77 45 158 51 180 21 81 40 84 60 8 7 -27 30
-106 51 -178 106 -353 92 -325 165 -325 37 0 56 4 60 14 3 7 -24 107 -60 222
-36 115 -84 270 -107 344 -23 74 -48 154 -56 178 l-15 42 -64 0 c-55 0 -65 -3
-78 -22z"/>
<path d="M3940 525 l0 -395 60 0 60 0 0 220 c0 175 3 220 13 220 7 0 60 -95
117 -211 62 -126 113 -217 126 -226 13 -8 39 -13 61 -11 l38 3 3 398 2 397
-55 0 -55 0 -2 -227 c-2 -185 -6 -228 -17 -228 -8 0 -54 88 -113 215 -55 118
-107 221 -116 228 -9 6 -40 12 -69 12 l-53 0 0 -395z"/>
<path d="M4568 914 c-11 -11 -10 -78 2 -108 9 -26 10 -26 130 -26 151 0 181
-11 203 -71 42 -116 45 -280 7 -365 -29 -67 -51 -76 -205 -82 l-135 -5 0 -69
0 -70 153 3 c171 4 191 11 260 89 53 57 67 91 79 188 23 185 -4 346 -72 441
-49 67 -73 74 -255 79 -88 2 -163 1 -167 -4z"/>
<path d="M5558 915 c-5 -5 -8 -34 -8 -65 l0 -57 38 -7 c20 -3 92 -6 158 -6
107 0 124 -2 147 -20 48 -38 42 -133 -10 -155 -10 -4 -88 -10 -173 -14 l-155
-6 -8 -60 c-9 -63 -2 -334 9 -373 6 -20 13 -22 65 -22 l59 0 0 154 c0 162 5
182 47 174 18 -3 71 -77 144 -201 22 -37 54 -84 71 -103 30 -34 33 -35 92 -32
54 3 61 5 58 23 -2 10 -42 82 -88 158 -46 77 -84 147 -84 156 1 9 21 29 47 45
62 40 88 96 88 196 0 61 -5 84 -25 124 -43 84 -48 86 -270 93 -107 3 -198 2
-202 -2z"/>
<path d="M6250 525 l0 -395 60 0 60 0 0 395 0 395 -60 0 -60 0 0 -395z"/>
<path d="M6522 853 l3 -68 130 -5 c190 -7 206 -22 225 -206 10 -95 9 -117 -6
-176 -25 -96 -47 -120 -120 -129 -32 -4 -98 -8 -146 -8 l-88 -1 0 -70 0 -70
133 0 c158 0 196 9 252 61 150 138 153 549 5 683 -52 47 -92 56 -253 56 l-138
0 3 -67z"/>
<path d="M7122 523 l3 -398 170 -3 c94 -2 189 0 213 3 l42 6 0 60 c0 32 -1 60
-2 61 -2 0 -70 4 -153 7 l-150 6 -3 86 -3 87 60 7 c33 4 82 6 108 5 26 -2 69
-2 96 -1 l47 1 0 64 0 63 -64 7 c-35 3 -71 3 -80 0 -9 -3 -55 -3 -101 1 l-85
7 0 78 c0 43 3 85 6 94 5 13 26 16 128 16 66 0 138 3 159 6 l37 7 0 63 0 64
-215 0 -215 0 2 -397z"/>
</g>
</svg>
